PathFileType	3	(X/Y/Z)	C:\Users\koon_\Desktop\
DataRate	CameraRate	NumFrames	NumMarkers	Units	OrigDataRate	OrigDataStartFrame	OrigNumFrames
100.0	100.0	14	27	mm	100.0	1013	2700	
Frame#	Time	get:LFHD			get:RFHD			get:LBHD			get:RBHD			get:C7			get:T10			get:CLAV			get:STRN			get:RBAK			get:LSHO			get:LUPA			get:LELB			get:LFRA			get:LWRA			get:LWRB			get:LFIN			get:RSHO			get:RUPA			get:RELB			get:RFRA			get:RWRA			get:RWRB			get:RFIN			get:LASI			get:RASI			get:LPSI			get:RPSI			
		X1	Y1	Z1	X2	Y2	Z2	X3	Y3	Z3	X4	Y4	Z4	X5	Y5	Z5	X6	Y6	Z6	X7	Y7	Z7	X8	Y8	Z8	X9	Y9	Z9	X10	Y10	Z10	X11	Y11	Z11	X12	Y12	Z12	X13	Y13	Z13	X14	Y14	Z14	X15	Y15	Z15	X16	Y16	Z16	X17	Y17	Z17	X18	Y18	Z18	X19	Y19	Z19	X20	Y20	Z20	X21	Y21	Z21	X22	Y22	Z22	X23	Y23	Z23	X24	Y24	Z24	X25	Y25	Z25	X26	Y26	Z26	X27	Y27	Z27	
1013	10.12	75.120308	1556.3457	-21.408619	-66.18959	1556.0448	-16.933409	45.981148	1558.9668	-181.2859	-83.549438	1534.3241	-182.07132	-2.492115	1343.6951	-195.95193	-8.6653156	1130.553	-217.11505	-8.4028091	1274.0208	7.0656414	1.2692841	1080.1617	63.513882	-76.341995	1264.582	-222.70793	120.56868	1338.5795	-113.30303	227.2551	1223.8651	-115.09981	283.78879	1056.1729	-160.06705	364.6315	938.81128	-130.50632	403.00546	870.46472	-114.79041	327.50629	840.47351	-139.54224	400.80594	809.54547	-188.05627	-132.007	1339.2109	-116.07484	-278.84824	1171.5193	-113.71177	-270.8725	1050.731	-165.17422	-357.37451	1021.295	-142.19955	-412.81573	870.16028	-122.26186	-347.16183	845.3869	-161.41644	-438.63028	805.94897	-179.0643	126.39165	888.91919	11.583552	-136.78983	874.20276	8.0378799	38.012764	957.79602	-199.35265	-51.985859	954.51843	-202.11371
1014	10.13	75.203857	1556.2343	-21.975597	-66.044968	1556.1597	-17.304493	45.797146	1558.7081	-181.86751	-83.748756	1534.2932	-182.369	-2.4101992	1343.6738	-196.377	-8.4461346	1130.6282	-216.72037	-8.5597992	1274.3368	6.8626437	1.4442548	1080.3861	63.407986	-76.173027	1264.3879	-222.59514	119.47023	1340.1769	-113.48995	230.11153	1230.0048	-115.42577	294.91473	1065.9816	-159.54601	382.33313	953.36279	-129.17587	424.31113	887.23956	-112.7063	350.96884	853.19568	-138.84647	426.93536	826.84009	-186.16151	-131.22372	1340.1313	-116.51682	-283.06854	1178.4578	-116.12275	-279.76443	1056.9922	-166.39426	-368.0126	1031.824	-144.84871	-430.5683	883.37134	-124.92675	-365.62735	855.52179	-163.1803	-458.60165	820.56641	-182.15167	126.47617	888.87067	11.50463	-136.76091	874.13214	8.3018389	37.832024	957.74615	-199.32976	-52.161312	954.50311	-201.96964
1015	10.14	75.251678	1556.1754	-22.60288	-66.028	1556.2169	-17.655939	45.597645	1558.4978	-182.42651	-83.975433	1534.2035	-182.76877	-2.3664758	1343.661	-196.92537	-8.1994066	1130.7833	-216.38202	-8.6605558	1274.7168	6.5769649	1.6690288	1080.6282	63.416161	-75.974602	1264.2765	-222.49603	118.17884	1341.796	-113.80318	232.70451	1236.75	-115.74231	305.99222	1076.6768	-158.76053	400.22546	969.56433	-127.7864	445.74109	906.00763	-110.64788	374.85303	867.93414	-138.00891	453.03665	846.45679	-184.28783	-130.21675	1341.1635	-117.08657	-287.439	1185.9716	-117.1002	-289.13217	1064.1429	-167.75423	-378.87738	1043.4897	-147.5347	-448.88394	898.37244	-127.93374	-384.79361	867.17578	-165.04466	-479.10095	836.97791	-185.4201	126.56626	888.85229	11.512784	-136.70387	874.05951	8.4721451	37.620705	957.53094	-199.00906	-52.318066	954.44922	-201.7581
1016	10.15	75.150436	1556.1803	-23.174709	-66.112701	1556.2783	-18.016172	45.289295	1558.3329	-182.94624	-84.333794	1534.0741	-183.06009	-2.3223414	1343.5841	-197.37508	-8.0030355	1130.9824	-216.08896	-8.7451658	1275.1483	6.4022193	1.8362919	1080.9104	63.368195	-75.790886	1264.228	-222.44301	116.71011	1343.3832	-114.22781	235.17294	1244.0322	-116.16696	317.39505	1088.5593	-158.36555	418.00903	987.41962	-126.44249	467.12332	926.83038	-108.60139	398.867	884.66187	-136.88953	478.89151	868.27753	-182.42548	-129.0262	1342.0568	-117.57684	-291.73593	1194.37	-121.89738	-298.8186	1072.1405	-169.07738	-389.8761	1056.3086	-150.05031	-467.4252	915.05664	-130.97362	-404.55832	880.48212	-166.99664	-500.03403	855.31262	-188.85672	126.5843	888.85468	11.5241	-136.63693	873.95374	8.7861328	37.513954	957.40631	-198.86514	-52.456051	954.38507	-201.57637
1017	10.16	75.017441	1556.2365	-23.763348	-66.250099	1556.3069	-18.479048	44.965443	1558.1892	-183.45801	-84.63633	1533.9404	-183.45946	-2.2648249	1343.542	-197.9381	-7.8567071	1131.0659	-215.59302	-8.8024893	1275.578	6.1562791	1.9988623	1081.21	63.276516	-75.509407	1264.1667	-222.36031	115.15335	1345.0313	-114.76626	237.50815	1251.8098	-116.78449	328.8591	1101.5768	-158.31445	435.39838	1006.9304	-125.16105	488.25244	949.72156	-106.86281	422.6669	903.33905	-135.4716	504.04578	892.19537	-180.47092	-127.61684	1343.0636	-118.22049	-295.7261	1203.0609	-124.18375	-308.68097	1081.0104	-170.57921	-400.76331	1070.2429	-152.89447	-486.08539	933.45398	-133.85545	-424.66003	895.24878	-168.89584	-520.86334	874.90161	-191.48976	126.59453	888.86469	11.576025	-136.5798	873.90637	9.1554422	37.358116	957.17462	-198.4435	-52.591301	954.26819	-201.26938
1018	10.17	74.824677	1556.325	-24.245203	-66.446892	1556.356	-18.914549	44.667877	1558.0696	-183.96773	-84.955772	1533.7747	-183.85353	-2.0462625	1343.5845	-198.79156	-7.7671905	1131.1555	-215.1041	-8.8294115	1275.9446	5.9849148	2.1089692	1081.4982	63.22699	-75.129105	1264.2155	-222.43597	113.46449	1346.5994	-115.30091	239.54086	1259.9843	-117.57314	339.72693	1115.3635	-157.93684	452.20441	1028.0935	-124.08575	508.59125	974.60217	-105.10416	446.04669	924.0426	-133.98361	528.30225	917.98822	-178.25664	-126.06306	1344.0784	-118.89565	-299.6983	1212.3112	-126.10547	-318.71262	1090.6188	-172.11433	-411.50406	1085.2303	-155.63875	-504.59183	953.64142	-136.85698	-445.03345	911.84656	-170.92964	-541.96802	896.94641	-194.86905	126.63512	888.90594	11.660221	-136.56471	873.86346	9.2833633	37.302505	957.13757	-198.23961	-52.627445	954.11481	-201.03322
1019	10.18	74.562309	1556.3643	-24.747957	-66.667496	1556.3893	-19.369404	44.349098	1557.9404	-184.47847	-85.226501	1533.5775	-184.12572	-1.7310495	1343.589	-199.72873	-7.5919151	1131.2947	-214.75507	-8.7765007	1276.4594	5.7096262	2.2596214	1081.8185	63.195095	-74.573738	1264.2479	-222.39851	111.62251	1348.1376	-115.87794	241.48431	1268.4879	-118.76978	349.77277	1129.8707	-157.27808	468.18597	1050.8024	-123.01236	527.90759	1001.2853	-103.35007	469.00555	946.79852	-132.43234	551.89673	946.22577	-176.3513	-124.39642	1345.0502	-119.60181	-303.07547	1221.8315	-129.2005	-328.5426	1100.9648	-173.64194	-421.78821	1101.2075	-158.26726	-522.63141	975.4577	-139.66916	-465.23206	929.99707	-172.90549	-563.07977	921.37396	-198.22981	126.6389	888.97644	11.832407	-136.5497	873.85388	9.6945362	37.324059	957.12476	-198.05193	-52.705063	953.80688	-200.27757
1020	10.19	74.303932	1556.4633	-25.254234	-66.929047	1556.4244	-19.823191	44.076157	1557.8514	-184.93553	-85.460838	1533.4365	-184.66187	-1.3443629	1343.5797	-200.56955	-7.4245138	1131.5201	-214.60657	-8.7715778	1276.9468	5.400486	2.3655009	1082.1989	63.201351	-74.000351	1264.3954	-222.49545	109.72218	1349.6345	-116.49081	242.80469	1277.1005	-119.77311	359.71335	1145.583	-157.29582	483.03159	1075.0868	-122.06558	545.91156	1029.827	-101.6023	490.94897	971.51056	-130.90421	574.27045	976.63275	-174.34404	-122.65369	1345.9412	-120.39838	-306.21274	1231.9683	-131.73254	-338.25873	1112.1862	-175.17282	-431.63223	1118.3041	-161.05028	-540.07605	999.00323	-142.40392	-485.12769	949.98956	-174.92326	-583.20728	947.1571	-200.77997	126.65066	889.05841	12.006278	-136.53333	873.81055	9.9496288	37.345173	957.0777	-197.79527	-52.649784	953.75153	-200.05809
1021	10.2	74.019501	1556.4753	-25.644184	-67.214111	1556.3682	-20.266968	43.848568	1557.7773	-185.37816	-85.747269	1533.3101	-185.0947	-0.87507945	1343.6022	-201.63629	-7.2201829	1131.6731	-214.35007	-8.7432137	1277.4226	5.1289878	2.5007582	1082.6523	63.128574	-73.309242	1264.5219	-222.58093	107.80332	1351.0479	-117.09715	243.6088	1285.9001	-120.65897	368.48468	1162.0941	-156.88673	496.64661	1100.7532	-121.01748	562.43701	1060.0874	-99.860268	511.75671	998.16327	-129.52382	595.09644	1009.2476	-172.4077	-120.89081	1346.8838	-121.18866	-308.76047	1242.3347	-134.49724	-347.76968	1124.2671	-176.66884	-440.64594	1136.3705	-163.64267	-556.54456	1024.2505	-145.2655	-504.33142	971.61902	-176.97121	-602.39319	975.00049	-203.46623	126.67159	889.10864	12.227319	-136.47316	873.86292	10.347901	37.45916	957.10767	-197.56577	-52.542709	953.73328	-199.81111
1022	10.21	73.701385	1556.5375	-26.035616	-67.558594	1556.3142	-20.745613	43.632313	1557.7688	-185.75688	-85.919006	1533.2813	-185.68704	-0.48636988	1343.5195	-202.52065	-7.0296936	1131.8224	-214.08954	-8.6693478	1277.9861	4.8541741	2.5727277	1083.1145	63.108303	-72.557037	1264.6621	-222.72598	105.92897	1352.3636	-117.70307	243.90633	1294.8334	-121.61964	376.35419	1179.1512	-156.25819	508.82651	1127.7002	-119.93922	577.21716	1091.8823	-98.096298	531.17487	1026.6055	-128.17815	614.05164	1043.845	-170.4619	-119.18437	1347.8048	-122.14597	-310.75717	1253.0289	-136.94435	-356.73294	1137.1785	-178.08652	-448.80835	1155.3286	-166.09798	-571.64429	1050.7737	-147.67622	-522.63983	994.87939	-178.84143	-620.0874	1004.3069	-206.13629	126.68316	889.17578	12.468428	-136.43867	873.89899	10.646566	37.629799	957.07294	-197.28867	-52.406075	953.72052	-199.55486
1023	10.22	73.340492	1556.5963	-26.411674	-67.903091	1556.205	-21.208933	43.375488	1557.8473	-186.16223	-86.144569	1533.13	-186.006	-0.088226594	1343.2979	-203.21608	-6.8055639	1131.9182	-213.90981	-8.5434952	1278.6072	4.499105	2.6249964	1083.6206	63.195751	-71.802231	1264.8359	-222.95172	104.03632	1353.6334	-118.34513	243.78343	1303.8269	-122.68224	383.56265	1197.1735	-155.91389	519.41095	1155.7966	-118.81768	590.07941	1125.009	-96.297966	548.88287	1057.1129	-127.48343	630.78778	1080.2512	-168.63242	-117.39995	1348.6803	-123.06556	-312.23065	1263.9235	-139.06027	-365.10498	1150.881	-179.44519	-455.97974	1174.9618	-168.19398	-585.23975	1078.5824	-149.98906	-539.83386	1019.5768	-180.60471	-636.21362	1034.8027	-208.42419	126.772	889.22168	12.775786	-136.34509	873.99158	10.966383	37.789001	957.03937	-197.01016	-52.217682	953.73785	-199.36021
1024	10.23	72.976486	1556.6642	-26.693401	-68.303154	1556.0596	-21.705271	43.129578	1557.941	-186.51773	-86.341095	1533.0138	-186.49167	0.38870135	1343.234	-204.33398	-6.5727167	1131.9751	-213.77367	-8.519618	1279.1658	4.3745875	2.7306564	1084.1696	63.086884	-70.972473	1265.078	-223.19524	102.35709	1354.8101	-119.05872	243.13007	1312.827	-123.43216	389.73166	1215.821	-155.56432	528.3562	1184.8413	-117.45959	600.78687	1159.1233	-94.461357	564.94586	1088.3242	-125.72411	645.23706	1118.1825	-166.77785	-115.6853	1349.5532	-123.90542	-313.0871	1275.0647	-141.01791	-372.82141	1165.254	-180.8176	-462.04163	1195.2396	-170.30591	-597.34833	1107.4677	-152.08549	-555.65143	1045.5439	-182.23074	-650.71204	1066.8981	-210.7626	126.83794	889.28088	13.109147	-136.28783	874.05725	11.279259	37.965469	957.02368	-196.73541	-52.01622	953.72687	-199.10367
1025	10.24	72.574677	1556.7124	-27.012199	-68.68338	1555.9054	-22.163363	42.934547	1558.0608	-186.85796	-86.519043	1532.9657	-187.14345	0.89402688	1343.0513	-205.116	-6.4216099	1131.9606	-213.47475	-8.4436731	1279.8186	4.1018028	2.7646582	1084.6375	63.002014	-70.109123	1265.329	-223.4146	100.68764	1355.8943	-119.71814	241.7739	1321.6482	-124.00751	394.83469	1234.9944	-155.11903	535.2301	1214.416	-116.19048	609.16302	1193.9468	-92.593086	578.52527	1121.3289	-125.49654	657.08905	1157.3755	-164.93886	-113.95787	1350.4563	-124.96652	-313.21909	1286.2628	-142.63319	-379.73593	1180.1787	-182.04814	-466.91977	1215.9894	-171.93491	-607.66003	1137.1951	-153.67931	-569.93994	1072.5663	-183.58421	-663.31696	1100.1592	-213.09323	126.90887	889.32587	13.440655	-136.16872	874.16895	11.762877	38.167503	957.05157	-196.95581	-51.768253	953.68536	-198.86116
1026	10.25	72.197479	1556.8406	-27.273592	-69.057381	1555.7269	-22.59565	42.760086	1558.1945	-187.16772	-86.678299	1532.8419	-187.49808	1.3764509	1342.8621	-205.92491	-6.1967106	1131.9885	-213.15479	-8.3902636	1280.4966	3.9135759	2.7566569	1085.1682	62.915592	-69.297462	1265.5497	-223.74667	98.969986	1356.9717	-120.36763	239.73021	1330.2727	-124.23899	398.64087	1254.6313	-154.76822	540.06482	1244.3654	-115.02106	615.13538	1229.2379	-90.804703	590.13495	1154.8781	-124.65364	666.16754	1197.4673	-163.10481	-112.283	1351.335	-125.77109	-312.63287	1297.3911	-144.11577	-385.71851	1195.6104	-183.24417	-470.56903	1237.0659	-173.31245	-616.22833	1167.8163	-155.86758	-582.61646	1100.5945	-184.96271	-674.0083	1134.1425	-214.87767	126.99968	889.3725	13.850404	-136.05548	874.26874	11.792564	38.458443	956.94489	-196.16029	-51.530643	953.71112	-198.60345
